<svg width="49" height="46" viewBox="0 0 49 46" fill="none" xmlns="http://www.w3.org/2000/svg">
<g clip-path="url(#clip0_3_672)">
<path d="M24.5 23C22.2541 23 20.4166 21.275 20.4166 19.1667C20.4166 17.0584 22.2541 15.3334 24.5 15.3334C26.7458 15.3334 28.5833 17.0584 28.5833 19.1667C28.5833 21.275 26.7458 23 24.5 23ZM36.75 19.55C36.75 12.5925 31.3395 7.66671 24.5 7.66671C17.6604 7.66671 12.25 12.5925 12.25 19.55C12.25 24.035 16.2312 29.9767 24.5 37.0684C32.7687 29.9767 36.75 24.035 36.75 19.55ZM24.5 3.83337C33.075 3.83337 40.8333 10.005 40.8333 19.55C40.8333 25.9134 35.382 33.4459 24.5 42.1667C13.6179 33.4459 8.16663 25.9134 8.16663 19.55C8.16663 10.005 15.925 3.83337 24.5 3.83337Z" fill="#FC5C50"/>
</g>
<defs>
<clipPath id="clip0_3_672">
<rect width="49" height="46" fill="white"/>
</clipPath>
</defs>
</svg>
