<svg width="69" height="63" viewBox="0 0 69 63" fill="none" xmlns="http://www.w3.org/2000/svg">
<g clip-path="url(#clip0_3_588)">
<path d="M57.5 15.75H46V10.5C46 7.6125 43.4125 5.25 40.25 5.25H28.75C25.5875 5.25 23 7.6125 23 10.5V15.75H11.5C8.3375 15.75 5.75 18.1125 5.75 21V52.5C5.75 55.3875 8.3375 57.75 11.5 57.75H57.5C60.6625 57.75 63.25 55.3875 63.25 52.5V21C63.25 18.1125 60.6625 15.75 57.5 15.75ZM28.75 10.5H40.25V15.75H28.75V10.5ZM57.5 52.5H11.5V21H57.5V52.5Z" fill="#FC5C50"/>
<path d="M37.375 26.25H31.625V34.125H23V39.375H31.625V47.25H37.375V39.375H46V34.125H37.375V26.25Z" fill="#FC5C50"/>
</g>
<defs>
<clipPath id="clip0_3_588">
<rect width="69" height="63" fill="white"/>
</clipPath>
</defs>
</svg>
