<svg data-v-423bf9ae="" xmlns="http://www.w3.org/2000/svg" viewBox="0 0 550.3125362550585 60" class="font"><!----><!----><!----><g data-v-423bf9ae="" id="2a7e179b-bcd3-415c-8764-c1c20d87ec63" fill="#FF6868" transform="matrix(4.464285853667328,0,0,4.464285853667328,-2.991064988064579,-7.5000002937657655)"><path d="M3.25 11.76L5.42 11.76L5.42 11.76Q6.90 11.76 7.60 10.84L7.60 10.84L7.60 10.84Q8.37 9.86 8.37 7.64L8.37 7.64L8.37 7.64Q8.37 5.46 7.60 4.40L7.60 4.40L7.60 4.40Q6.87 3.36 5.28 3.36L5.28 3.36L3.25 3.36L3.25 11.76ZM0.67 2.52L5.38 2.52L5.38 2.52Q7.46 2.52 8.62 3.70L8.62 3.70L8.62 3.70Q9.28 4.37 9.63 5.35L9.63 5.35L9.63 5.35Q9.98 6.33 9.98 7.45L9.98 7.45L9.98 7.45Q9.98 8.64 9.62 9.66L9.62 9.66L9.62 9.66Q9.25 10.68 8.58 11.38L8.58 11.38L8.58 11.38Q7.99 12.01 7.18 12.31L7.18 12.31L7.18 12.31Q6.37 12.60 5.25 12.60L5.25 12.60L0.67 12.60L0.67 12.00L1.85 11.70L1.85 3.42L0.67 3.12L0.67 2.52ZM15.44 5.85L15.44 5.85L15.44 5.85Q15.32 5.77 15.16 5.77L15.16 5.77L15.16 5.77Q14.90 5.77 14.60 6.10L14.60 6.10L14.60 6.10Q14.31 6.43 14.08 6.93L14.08 6.93L14.08 6.93Q13.89 7.41 13.78 7.97L13.78 7.97L13.78 7.97Q13.66 8.54 13.66 9.14L13.66 9.14L13.66 11.76L15.18 12.03L15.18 12.60L11.23 12.60L11.23 12.03L12.31 11.76L12.31 5.88L11.23 5.61L11.23 5.04L13.24 5.04L13.55 6.89L13.61 6.89L13.61 6.89Q13.93 5.94 14.47 5.42L14.47 5.42L14.47 5.42Q15.01 4.90 15.68 4.90L15.68 4.90L15.68 4.90Q16.23 4.90 16.59 5.24L16.59 5.24L16.59 5.24Q16.95 5.59 16.95 6.16L16.95 6.16L16.95 6.16Q16.95 6.58 16.74 6.82L16.74 6.82L16.74 6.82Q16.52 7.07 16.16 7.07L16.16 7.07L16.16 7.07Q15.79 7.07 15.58 6.84L15.58 6.84L15.58 6.84Q15.37 6.61 15.37 6.23L15.37 6.23L15.37 6.23Q15.37 6.15 15.39 6.08L15.39 6.08L15.39 6.08Q15.40 6.01 15.44 5.85ZM17.56 11.86L17.56 11.86L17.56 11.86Q17.56 11.44 17.79 11.19L17.79 11.19L17.79 11.19Q18.03 10.95 18.44 10.95L18.44 10.95L18.44 10.95Q18.84 10.95 19.09 11.20L19.09 11.20L19.09 11.20Q19.33 11.45 19.33 11.86L19.33 11.86L19.33 11.86Q19.33 12.26 19.09 12.50L19.09 12.50L19.09 12.50Q18.84 12.74 18.44 12.74L18.44 12.74L18.44 12.74Q18.02 12.74 17.79 12.51L17.79 12.51L17.79 12.51Q17.56 12.28 17.56 11.86ZM28.92 11.83L28.92 11.83L28.92 11.83Q31.30 11.83 31.30 9.48L31.30 9.48L31.30 8.50L30.13 8.20L30.13 7.57L33.88 7.57L33.88 8.20L32.70 8.50L32.70 12.60L31.98 12.60L31.63 11.49L31.63 11.49Q31.01 12.17 30.37 12.45L30.37 12.45L30.37 12.45Q29.72 12.74 28.84 12.74L28.84 12.74L28.84 12.74Q26.92 12.74 25.77 11.56L25.77 11.56L25.77 11.56Q25.12 10.89 24.77 9.90L24.77 9.90L24.77 9.90Q24.42 8.90 24.42 7.67L24.42 7.67L24.42 7.67Q24.42 6.43 24.79 5.36L24.79 5.36L24.79 5.36Q25.16 4.30 25.83 3.58L25.83 3.58L25.83 3.58Q26.96 2.38 28.90 2.38L28.90 2.38L28.90 2.38Q29.74 2.38 30.33 2.64L30.33 2.64L30.33 2.64Q30.93 2.90 31.46 3.49L31.46 3.49L31.77 2.52L32.54 2.52L32.54 5.61L31.68 5.61L31.68 5.61Q31.28 3.14 28.84 3.14L28.84 3.14L28.84 3.14Q28.13 3.14 27.65 3.37L27.65 3.37L27.65 3.37Q27.17 3.60 26.82 4.09L26.82 4.09L26.82 4.09Q26.42 4.68 26.19 5.57L26.19 5.57L26.19 5.57Q25.97 6.47 25.97 7.48L25.97 7.48L25.97 7.48Q25.97 8.53 26.21 9.40L26.21 9.40L26.21 9.40Q26.46 10.28 26.91 10.89L26.91 10.89L26.91 10.89Q27.27 11.38 27.74 11.61L27.74 11.61L27.74 11.61Q28.21 11.83 28.92 11.83ZM40.49 11.76L40.49 8.64L40.49 8.64Q40.49 7.74 40.44 7.29L40.44 7.29L40.44 7.29Q40.39 6.83 40.26 6.58L40.26 6.58L40.26 6.58Q39.91 5.89 39.03 5.89L39.03 5.89L39.03 5.89Q38.64 5.89 38.28 6.03L38.28 6.03L38.28 6.03Q37.91 6.17 37.63 6.41L37.63 6.41L37.63 6.41Q37.32 6.69 37.18 7.06L37.18 7.06L37.18 7.06Q37.03 7.42 37.00 7.97L37.00 7.97L37.00 11.76L37.94 12.03L37.94 12.60L34.57 12.60L34.57 12.03L35.64 11.76L35.64 2.52L34.57 2.25L34.57 1.68L37.00 1.68L37.00 6.36L37.00 6.36Q37.42 5.68 38.12 5.29L38.12 5.29L38.12 5.29Q38.81 4.90 39.61 4.90L39.61 4.90L39.61 4.90Q40.17 4.90 40.61 5.10L40.61 5.10L40.61 5.10Q41.06 5.29 41.33 5.66L41.33 5.66L41.33 5.66Q41.61 6.05 41.73 6.75L41.73 6.75L41.73 6.75Q41.85 7.46 41.85 8.67L41.85 8.67L41.85 11.76L42.92 12.03L42.92 12.60L39.55 12.60L39.55 12.03L40.49 11.76ZM45.93 5.04L45.93 9.00L45.93 9.00Q45.93 9.45 45.95 9.79L45.95 9.79L45.95 9.79Q45.96 10.12 45.98 10.36L45.98 10.36L45.98 10.36Q46.00 10.60 46.05 10.77L46.05 10.77L46.05 10.77Q46.09 10.93 46.16 11.06L46.16 11.06L46.16 11.06Q46.48 11.75 47.33 11.75L47.33 11.75L47.33 11.75Q47.71 11.75 48.06 11.61L48.06 11.61L48.06 11.61Q48.41 11.47 48.68 11.23L48.68 11.23L48.68 11.23Q48.99 10.95 49.13 10.58L49.13 10.58L49.13 10.58Q49.28 10.21 49.31 9.62L49.31 9.62L49.31 5.88L48.09 5.61L48.09 5.04L50.67 5.04L50.67 11.76L51.74 12.03L51.74 12.60L49.57 12.74L49.42 11.20L49.36 11.20L49.36 11.20Q48.96 11.91 48.26 12.33L48.26 12.33L48.26 12.33Q47.56 12.74 46.76 12.74L46.76 12.74L46.76 12.74Q46.23 12.74 45.79 12.54L45.79 12.54L45.79 12.54Q45.35 12.35 45.09 11.98L45.09 11.98L45.09 11.98Q44.81 11.59 44.70 10.88L44.70 10.88L44.70 10.88Q44.58 10.18 44.58 8.97L44.58 8.97L44.58 5.88L43.64 5.61L43.64 5.04L45.93 5.04ZM53.56 11.76L53.56 2.52L52.49 2.25L52.49 1.68L54.92 1.68L54.92 11.76L56 12.03L56 12.60L52.49 12.60L52.49 12.03L53.56 11.76ZM56.94 10.96L56.94 10.96L56.94 10.96Q56.94 10.42 57.18 10.00L57.18 10.00L57.18 10.00Q57.43 9.58 57.96 9.25L57.96 9.25L57.96 9.25Q58.49 8.92 59.33 8.68L59.33 8.68L59.33 8.68Q60.17 8.44 61.35 8.26L61.35 8.26L61.35 8.26Q61.28 7.43 61.19 6.97L61.19 6.97L61.19 6.97Q61.10 6.51 60.94 6.23L60.94 6.23L60.94 6.23Q60.75 5.87 60.40 5.69L60.40 5.69L60.40 5.69Q60.05 5.52 59.64 5.52L59.64 5.52L59.64 5.52Q59.25 5.52 58.93 5.66L58.93 5.66L58.93 5.66Q58.62 5.80 58.51 6.03L58.51 6.03L58.51 6.03Q58.70 6.19 58.79 6.40L58.79 6.40L58.79 6.40Q58.88 6.62 58.88 6.82L58.88 6.82L58.88 6.82Q58.88 7.17 58.65 7.37L58.65 7.37L58.65 7.37Q58.42 7.57 58.09 7.57L58.09 7.57L58.09 7.57Q57.75 7.57 57.53 7.35L57.53 7.35L57.53 7.35Q57.32 7.13 57.32 6.72L57.32 6.72L57.32 6.72Q57.32 6.29 57.55 5.94L57.55 5.94L57.55 5.94Q57.79 5.60 58.18 5.37L58.18 5.37L58.18 5.37Q58.56 5.14 59.05 5.02L59.05 5.02L59.05 5.02Q59.53 4.90 60.00 4.90L60.00 4.90L60.00 4.90Q61.19 4.90 61.88 5.59L61.88 5.59L61.88 5.59Q62.75 6.45 62.75 8.67L62.75 8.67L62.75 10.70L62.75 10.70Q62.75 11.40 62.84 11.65L62.84 11.65L62.84 11.65Q62.93 11.91 63.24 11.91L63.24 11.91L63.87 11.91L63.87 12.33L63.87 12.33Q62.86 12.74 62.30 12.74L62.30 12.74L62.30 12.74Q62.09 12.74 61.95 12.67L61.95 12.67L61.95 12.67Q61.81 12.60 61.73 12.42L61.73 12.42L61.73 12.42Q61.64 12.25 61.61 11.96L61.61 11.96L61.61 11.96Q61.57 11.66 61.57 11.21L61.57 11.21L61.52 11.21L61.52 11.21Q61.08 11.93 60.37 12.33L60.37 12.33L60.37 12.33Q59.65 12.74 58.83 12.74L58.83 12.74L58.83 12.74Q57.95 12.74 57.44 12.27L57.44 12.27L57.44 12.27Q56.94 11.80 56.94 10.96ZM59.42 11.93L59.42 11.93L59.42 11.93Q59.81 11.93 60.23 11.72L60.23 11.72L60.23 11.72Q60.66 11.52 60.96 11.16L60.96 11.16L60.96 11.16Q61.39 10.63 61.39 9.59L61.39 9.59L61.39 9.59Q61.39 9.35 61.38 9.12L61.38 9.12L61.38 9.12Q61.36 8.89 61.33 8.68L61.33 8.68L61.33 8.68Q60.48 8.85 59.91 9.03L59.91 9.03L59.91 9.03Q59.35 9.21 59.00 9.44L59.00 9.44L59.00 9.44Q58.66 9.67 58.52 9.97L58.52 9.97L58.52 9.97Q58.38 10.28 58.38 10.67L58.38 10.67L58.38 10.67Q58.38 11.27 58.65 11.60L58.65 11.60L58.65 11.60Q58.93 11.93 59.42 11.93ZM65.51 11.76L65.51 5.88L64.43 5.61L64.43 5.04L66.44 5.04L66.75 6.44L66.81 6.44L66.81 6.44Q67.21 5.73 67.89 5.31L67.89 5.31L67.89 5.31Q68.57 4.90 69.34 4.90L69.34 4.90L69.34 4.90Q69.93 4.90 70.37 5.12L70.37 5.12L70.37 5.12Q70.81 5.33 71.02 5.66L71.02 5.66L71.02 5.66Q71.25 6.01 71.39 6.58L71.39 6.58L71.39 6.58Q71.83 5.78 72.55 5.34L72.55 5.34L72.55 5.34Q73.26 4.90 74.07 4.90L74.07 4.90L74.07 4.90Q74.63 4.90 75.08 5.12L75.08 5.12L75.08 5.12Q75.53 5.33 75.77 5.71L75.77 5.71L75.77 5.71Q75.89 5.91 75.98 6.19L75.98 6.19L75.98 6.19Q76.06 6.47 76.12 6.88L76.12 6.88L76.12 6.88Q76.17 7.29 76.19 7.85L76.19 7.85L76.19 7.85Q76.22 8.41 76.22 9.17L76.22 9.17L76.22 11.76L77.29 12.03L77.29 12.60L73.92 12.60L73.92 12.03L74.86 11.76L74.86 8.64L74.86 8.64Q74.86 7.74 74.81 7.29L74.81 7.29L74.81 7.29Q74.76 6.83 74.63 6.58L74.63 6.58L74.63 6.58Q74.28 5.89 73.46 5.89L73.46 5.89L73.46 5.89Q73.09 5.89 72.77 6.03L72.77 6.03L72.77 6.03Q72.44 6.17 72.17 6.41L72.17 6.41L72.17 6.41Q71.86 6.69 71.72 7.06L71.72 7.06L71.72 7.06Q71.57 7.43 71.54 8.02L71.54 8.02L71.54 11.76L72.48 12.03L72.48 12.60L69.24 12.60L69.24 12.03L70.18 11.76L70.18 8.64L70.18 8.64Q70.18 7.74 70.13 7.29L70.13 7.29L70.13 7.29Q70.08 6.83 69.96 6.58L69.96 6.58L69.96 6.58Q69.61 5.89 68.78 5.89L68.78 5.89L68.78 5.89Q68.42 5.89 68.09 6.03L68.09 6.03L68.09 6.03Q67.76 6.17 67.49 6.41L67.49 6.41L67.49 6.41Q67.19 6.69 67.04 7.06L67.04 7.06L67.04 7.06Q66.89 7.43 66.86 8.02L66.86 8.02L66.86 11.76L67.80 12.03L67.80 12.60L64.43 12.60L64.43 12.03L65.51 11.76ZM85.62 12.75L85.62 12.75L85.62 12.75Q84.78 12.75 84.11 12.50L84.11 12.50L84.11 12.50Q83.44 12.25 82.99 11.79L82.99 11.79L82.84 12.60L82.05 12.60L82.05 9.42L82.91 9.42L82.91 9.42Q82.99 10.77 83.57 11.38L83.57 11.38L83.57 11.38Q84.15 11.98 85.36 11.98L85.36 11.98L85.36 11.98Q87.36 11.98 87.36 10.46L87.36 10.46L87.36 10.46Q87.36 10.01 87.19 9.67L87.19 9.67L87.19 9.67Q87.01 9.34 86.69 9.06L86.69 9.06L86.69 9.06Q86.37 8.79 85.90 8.56L85.90 8.56L85.90 8.56Q85.43 8.33 84.84 8.09L84.84 8.09L84.84 8.09Q84.17 7.83 83.66 7.57L83.66 7.57L83.66 7.57Q83.15 7.31 82.80 6.98L82.80 6.98L82.80 6.98Q82.46 6.65 82.28 6.22L82.28 6.22L82.28 6.22Q82.10 5.80 82.10 5.18L82.10 5.18L82.10 5.18Q82.10 3.85 82.93 3.11L82.93 3.11L82.93 3.11Q83.76 2.37 85.16 2.37L85.16 2.37L85.16 2.37Q86.55 2.37 87.42 3.15L87.42 3.15L87.53 2.52L88.31 2.52L88.31 5.70L87.51 5.70L87.51 5.70Q87.51 4.34 87.02 3.73L87.02 3.73L87.02 3.73Q86.52 3.12 85.43 3.12L85.43 3.12L85.43 3.12Q83.51 3.12 83.51 4.87L83.51 4.87L83.51 4.87Q83.51 5.22 83.59 5.47L83.59 5.47L83.59 5.47Q83.68 5.71 83.91 5.92L83.91 5.92L83.91 5.92Q84.14 6.13 84.53 6.33L84.53 6.33L84.53 6.33Q84.92 6.52 85.54 6.79L85.54 6.79L85.54 6.79Q86.41 7.17 87.02 7.51L87.02 7.51L87.02 7.51Q87.64 7.85 88.02 8.23L88.02 8.23L88.02 8.23Q88.41 8.61 88.59 9.04L88.59 9.04L88.59 9.04Q88.77 9.48 88.77 10.02L88.77 10.02L88.77 10.02Q88.77 10.67 88.54 11.18L88.54 11.18L88.54 11.18Q88.31 11.69 87.90 12.04L87.90 12.04L87.90 12.04Q87.49 12.39 86.91 12.57L86.91 12.57L86.91 12.57Q86.32 12.75 85.62 12.75ZM91.10 5.88L90.02 5.61L90.02 5.04L92.46 5.04L92.46 11.76L93.53 12.03L93.53 12.60L90.02 12.60L90.02 12.03L91.10 11.76L91.10 5.88ZM90.90 2.79L90.90 2.79L90.90 2.79Q90.90 2.38 91.13 2.14L91.13 2.14L91.13 2.14Q91.36 1.90 91.77 1.90L91.77 1.90L91.77 1.90Q92.18 1.90 92.41 2.14L92.41 2.14L92.41 2.14Q92.65 2.38 92.65 2.79L92.65 2.79L92.65 2.79Q92.65 3.19 92.41 3.42L92.41 3.42L92.41 3.42Q92.18 3.65 91.77 3.65L91.77 3.65L91.77 3.65Q91.36 3.65 91.13 3.42L91.13 3.42L91.13 3.42Q90.90 3.19 90.90 2.79ZM94.53 8.89L94.53 8.89L94.53 8.89Q94.53 7.97 94.77 7.15L94.77 7.15L94.77 7.15Q95.00 6.34 95.48 5.81L95.48 5.81L95.48 5.81Q95.89 5.36 96.44 5.13L96.44 5.13L96.44 5.13Q96.99 4.90 97.73 4.90L97.73 4.90L97.73 4.90Q98.36 4.90 98.87 5.14L98.87 5.14L98.87 5.14Q99.37 5.38 99.78 5.99L99.78 5.99L99.78 2.52L98.70 2.25L98.70 1.68L101.14 1.68L101.14 11.76L102.21 12.03L102.21 12.60L100.04 12.74L99.93 11.59L99.93 11.59Q99.50 12.25 98.95 12.49L98.95 12.49L98.95 12.49Q98.41 12.74 97.73 12.74L97.73 12.74L97.73 12.74Q97.02 12.74 96.45 12.53L96.45 12.53L96.45 12.53Q95.87 12.32 95.49 11.86L95.49 11.86L95.49 11.86Q95.05 11.31 94.79 10.55L94.79 10.55L94.79 10.55Q94.53 9.79 94.53 8.89ZM99.78 8.88L99.78 8.88L99.78 8.88Q99.78 7.15 99.29 6.37L99.29 6.37L99.29 6.37Q99.06 6.01 98.74 5.82L98.74 5.82L98.74 5.82Q98.42 5.63 97.89 5.63L97.89 5.63L97.89 5.63Q96.94 5.63 96.47 6.29L96.47 6.29L96.47 6.29Q96.22 6.65 96.11 7.29L96.11 7.29L96.11 7.29Q96.00 7.94 96.00 8.78L96.00 8.78L96.00 8.78Q96.00 10.46 96.49 11.27L96.49 11.27L96.49 11.27Q96.73 11.63 97.05 11.82L97.05 11.82L97.05 11.82Q97.37 12.01 97.90 12.01L97.90 12.01L97.90 12.01Q98.39 12.01 98.74 11.85L98.74 11.85L98.74 11.85Q99.09 11.69 99.29 11.37L99.29 11.37L99.29 11.37Q99.53 10.98 99.65 10.35L99.65 10.35L99.65 10.35Q99.78 9.73 99.78 8.88ZM103.21 8.89L103.21 8.89L103.21 8.89Q103.21 7.97 103.45 7.15L103.45 7.15L103.45 7.15Q103.68 6.34 104.16 5.81L104.16 5.81L104.16 5.81Q104.57 5.36 105.12 5.13L105.12 5.13L105.12 5.13Q105.67 4.90 106.41 4.90L106.41 4.90L106.41 4.90Q107.04 4.90 107.55 5.14L107.55 5.14L107.55 5.14Q108.05 5.38 108.46 5.99L108.46 5.99L108.46 2.52L107.38 2.25L107.38 1.68L109.82 1.68L109.82 11.76L110.89 12.03L110.89 12.60L108.72 12.74L108.61 11.59L108.61 11.59Q108.18 12.25 107.63 12.49L107.63 12.49L107.63 12.49Q107.09 12.74 106.41 12.74L106.41 12.74L106.41 12.74Q105.70 12.74 105.13 12.53L105.13 12.53L105.13 12.53Q104.55 12.32 104.17 11.86L104.17 11.86L104.17 11.86Q103.73 11.31 103.47 10.55L103.47 10.55L103.47 10.55Q103.21 9.79 103.21 8.89ZM108.46 8.88L108.46 8.88L108.46 8.88Q108.46 7.15 107.97 6.37L107.97 6.37L107.97 6.37Q107.74 6.01 107.42 5.82L107.42 5.82L107.42 5.82Q107.10 5.63 106.57 5.63L106.57 5.63L106.57 5.63Q105.62 5.63 105.15 6.29L105.15 6.29L105.15 6.29Q104.90 6.65 104.79 7.29L104.79 7.29L104.79 7.29Q104.68 7.94 104.68 8.78L104.68 8.78L104.68 8.78Q104.68 10.46 105.17 11.27L105.17 11.27L105.17 11.27Q105.41 11.63 105.73 11.82L105.73 11.82L105.73 11.82Q106.05 12.01 106.58 12.01L106.58 12.01L106.58 12.01Q107.07 12.01 107.42 11.85L107.42 11.85L107.42 11.85Q107.77 11.69 107.97 11.37L107.97 11.37L107.97 11.37Q108.21 10.98 108.33 10.35L108.33 10.35L108.33 10.35Q108.46 9.73 108.46 8.88ZM112.83 5.88L111.75 5.61L111.75 5.04L114.18 5.04L114.18 11.76L115.26 12.03L115.26 12.60L111.75 12.60L111.75 12.03L112.83 11.76L112.83 5.88ZM112.63 2.79L112.63 2.79L112.63 2.79Q112.63 2.38 112.86 2.14L112.86 2.14L112.86 2.14Q113.09 1.90 113.50 1.90L113.50 1.90L113.50 1.90Q113.90 1.90 114.14 2.14L114.14 2.14L114.14 2.14Q114.38 2.38 114.38 2.79L114.38 2.79L114.38 2.79Q114.38 3.19 114.14 3.42L114.14 3.42L114.14 3.42Q113.90 3.65 113.50 3.65L113.50 3.65L113.50 3.65Q113.09 3.65 112.86 3.42L112.86 3.42L112.86 3.42Q112.63 3.19 112.63 2.79ZM121.51 14.28L121.51 11.66L121.51 11.66Q121.10 12.19 120.60 12.40L120.60 12.40L120.60 12.40Q120.09 12.60 119.46 12.60L119.46 12.60L119.46 12.60Q118.75 12.60 118.17 12.39L118.17 12.39L118.17 12.39Q117.60 12.18 117.22 11.72L117.22 11.72L117.22 11.72Q116.77 11.19 116.52 10.44L116.52 10.44L116.52 10.44Q116.26 9.70 116.26 8.82L116.26 8.82L116.26 8.82Q116.26 7.92 116.51 7.13L116.51 7.13L116.51 7.13Q116.76 6.34 117.21 5.81L117.21 5.81L117.21 5.81Q117.57 5.36 118.15 5.13L118.15 5.13L118.15 5.13Q118.72 4.90 119.46 4.90L119.46 4.90L119.46 4.90Q120.20 4.90 120.77 5.24L120.77 5.24L120.77 5.24Q121.34 5.59 121.79 6.48L121.79 6.48L122.21 5.04L122.86 5.04L122.86 14.28L123.94 14.55L123.94 15.12L120.15 15.12L120.15 14.55L121.51 14.28ZM121.51 8.81L121.51 8.81L121.51 8.81Q121.51 7.14 121.02 6.37L121.02 6.37L121.02 6.37Q120.79 6.01 120.47 5.82L120.47 5.82L120.47 5.82Q120.15 5.63 119.62 5.63L119.62 5.63L119.62 5.63Q118.66 5.63 118.20 6.29L118.20 6.29L118.20 6.29Q117.95 6.64 117.84 7.26L117.84 7.26L117.84 7.26Q117.73 7.88 117.73 8.71L117.73 8.71L117.73 8.71Q117.73 10.35 118.22 11.13L118.22 11.13L118.22 11.13Q118.45 11.49 118.78 11.68L118.78 11.68L118.78 11.68Q119.10 11.87 119.63 11.87L119.63 11.87L119.63 11.87Q120.12 11.87 120.47 11.71L120.47 11.71L120.47 11.71Q120.82 11.55 121.02 11.23L121.02 11.23L121.02 11.23Q121.25 10.85 121.38 10.25L121.38 10.25L121.38 10.25Q121.51 9.65 121.51 8.81Z"></path></g><!----><!----></svg>